<svg width="43" height="43" viewBox="0 0 43 43" fill="none" xmlns="http://www.w3.org/2000/svg">
<g id="facebook">
<path id="Vector" d="M21.5 3.65503C11.6459 3.65503 3.58337 11.6996 3.58337 21.6075C3.58337 30.5659 10.1409 38.0013 18.705 39.345V26.8034H14.1542V21.6075H18.705V17.6479C18.705 13.1509 21.3746 10.6784 25.4775 10.6784C27.4305 10.6784 29.473 11.0188 29.473 11.0188V15.4442H27.2155C24.9938 15.4442 24.295 16.8238 24.295 18.2392V21.6075H29.2759L28.4696 26.8034H24.295V39.345C28.517 38.6782 32.3615 36.5241 35.1345 33.2714C37.9075 30.0187 39.4263 25.8818 39.4167 21.6075C39.4167 11.6996 31.3542 3.65503 21.5 3.65503Z" fill="white"/>
</g>
</svg>
