<svg width="21" height="21" viewBox="0 0 21 21" fill="none" xmlns="http://www.w3.org/2000/svg">
<g id="instagram">
<path id="Vector" d="M6.79493 2.48425H13.8213C16.4981 2.48425 18.6729 4.6591 18.6729 7.33583V14.3622C18.6729 15.649 18.1618 16.883 17.2519 17.7928C16.3421 18.7027 15.1081 19.2138 13.8213 19.2138H6.79493C4.1182 19.2138 1.94336 17.039 1.94336 14.3622V7.33583C1.94336 6.04911 2.45451 4.81509 3.36435 3.90525C4.2742 2.9954 5.50822 2.48425 6.79493 2.48425ZM6.62764 4.15721C5.82898 4.15721 5.06304 4.47447 4.49831 5.0392C3.93358 5.60394 3.61632 6.36988 3.61632 7.16853V14.5295C3.61632 16.1941 4.96305 17.5409 6.62764 17.5409H13.9886C14.7873 17.5409 15.5532 17.2236 16.118 16.6589C16.6827 16.0941 17 15.3282 17 14.5295V7.16853C17 5.50394 15.6532 4.15721 13.9886 4.15721H6.62764ZM14.6996 5.41193C14.977 5.41193 15.2429 5.52209 15.439 5.71817C15.6351 5.91426 15.7452 6.18021 15.7452 6.45752C15.7452 6.73483 15.6351 7.00079 15.439 7.19687C15.2429 7.39296 14.977 7.50312 14.6996 7.50312C14.4223 7.50312 14.1564 7.39296 13.9603 7.19687C13.7642 7.00079 13.6541 6.73483 13.6541 6.45752C13.6541 6.18021 13.7642 5.91426 13.9603 5.71817C14.1564 5.52209 14.4223 5.41193 14.6996 5.41193ZM10.3081 6.66664C11.4174 6.66664 12.4812 7.10729 13.2655 7.89164C14.0499 8.67599 14.4905 9.73979 14.4905 10.849C14.4905 11.9583 14.0499 13.0221 13.2655 13.8064C12.4812 14.5908 11.4174 15.0314 10.3081 15.0314C9.1989 15.0314 8.13509 14.5908 7.35074 13.8064C6.56639 13.0221 6.12575 11.9583 6.12575 10.849C6.12575 9.73979 6.56639 8.67599 7.35074 7.89164C8.13509 7.10729 9.1989 6.66664 10.3081 6.66664ZM10.3081 8.3396C9.6426 8.3396 9.00431 8.60398 8.5337 9.0746C8.06309 9.54521 7.79871 10.1835 7.79871 10.849C7.79871 11.5146 8.06309 12.1529 8.5337 12.6235C9.00431 13.0941 9.6426 13.3585 10.3081 13.3585C10.9737 13.3585 11.612 13.0941 12.0826 12.6235C12.5532 12.1529 12.8176 11.5146 12.8176 10.849C12.8176 10.1835 12.5532 9.54521 12.0826 9.0746C11.612 8.60398 10.9737 8.3396 10.3081 8.3396Z" fill="black"/>
</g>
</svg>
